<?xml version="1.0" encoding="UTF-8"?>
<!DOCTYPE svg PUBLIC "-//W3C//DTD SVG 1.1//EN" "http://www.w3.org/Graphics/SVG/1.1/DTD/svg11.dtd">
<svg xmlns="http://www.w3.org/2000/svg" version="1.1" width="288px" height="512px" style="shape-rendering:geometricPrecision; text-rendering:geometricPrecision; image-rendering:optimizeQuality; fill-rule:evenodd; clip-rule:evenodd" xmlns:xlink="http://www.w3.org/1999/xlink">
<g><path style="opacity:1" fill="#4ec0ca" d="M -0.5,-0.5 C 95.5,-0.5 191.5,-0.5 287.5,-0.5C 287.5,105.5 287.5,211.5 287.5,317.5C 285.439,319.21 283.105,320.543 280.5,321.5C 274.539,318.006 268.206,317.006 261.5,318.5C 257.172,320.329 253.172,322.662 249.5,325.5C 243.907,320.037 237.24,316.703 229.5,315.5C 225.123,315.688 221.123,317.021 217.5,319.5C 214.81,317.807 212.81,315.473 211.5,312.5C 210.311,311.571 208.978,311.238 207.5,311.5C 206.665,310.057 205.332,309.057 203.5,308.5C 192.441,306.856 183.441,310.522 176.5,319.5C 163.363,309.126 150.363,309.126 137.5,319.5C 132.965,317.411 128.298,317.078 123.5,318.5C 119.172,320.329 115.172,322.662 111.5,325.5C 98.4239,312.257 85.4239,312.257 72.5,325.5C 71.5713,326.689 71.238,328.022 71.5,329.5C 66.189,328.184 60.8556,326.851 55.5,325.5C 50.1444,326.851 44.811,328.184 39.5,329.5C 37.3297,320.992 31.9964,315.326 23.5,312.5C 19.5,311.167 15.5,311.167 11.5,312.5C 7.11651,314.352 3.11651,316.685 -0.5,319.5C -0.5,212.833 -0.5,106.167 -0.5,-0.5 Z"/></g>
<g><path style="opacity:1" fill="#e7fbd8" d="M 207.5,311.5 C 208.513,319.85 213.179,323.85 221.5,323.5C 221.5,322.167 221.5,320.833 221.5,319.5C 225.555,319.176 229.555,319.509 233.5,320.5C 236.55,322.517 239.883,323.517 243.5,323.5C 243.468,327.468 245.468,329.468 249.5,329.5C 254.094,327.203 258.761,324.87 263.5,322.5C 267.445,321.509 271.445,321.176 275.5,321.5C 275.5,322.833 275.5,324.167 275.5,325.5C 279.742,325.849 283.742,325.183 287.5,323.5C 287.5,332.167 287.5,340.833 287.5,349.5C 285.5,349.5 283.5,349.5 281.5,349.5C 281.5,348.167 281.5,346.833 281.5,345.5C 279.5,345.5 277.5,345.5 275.5,345.5C 275.5,342.833 275.5,340.167 275.5,337.5C 272.167,337.5 268.833,337.5 265.5,337.5C 263.5,337.5 261.5,337.5 259.5,337.5C 259.5,338.833 259.5,340.167 259.5,341.5C 257.861,347.111 256.861,353.111 256.5,359.5C 255.507,354.88 255.173,350.214 255.5,345.5C 252.167,345.5 248.833,345.5 245.5,345.5C 245.5,344.167 245.5,342.833 245.5,341.5C 230.363,340.981 224.03,348.314 226.5,363.5C 225.509,359.555 225.176,355.555 225.5,351.5C 224.167,351.5 222.833,351.5 221.5,351.5C 219.365,349.631 216.698,348.964 213.5,349.5C 213.5,348.167 213.5,346.833 213.5,345.5C 211.5,345.5 209.5,345.5 207.5,345.5C 207.5,342.833 207.5,340.167 207.5,337.5C 204.167,337.5 200.833,337.5 197.5,337.5C 195.5,337.5 193.5,337.5 191.5,337.5C 191.5,338.833 191.5,340.167 191.5,341.5C 189.861,347.111 188.861,353.111 188.5,359.5C 187.507,354.88 187.173,350.214 187.5,345.5C 184.167,345.5 180.833,345.5 177.5,345.5C 177.5,344.167 177.5,342.833 177.5,341.5C 162.363,340.981 156.03,348.314 158.5,363.5C 157.509,359.555 157.176,355.555 157.5,351.5C 155.5,351.5 153.5,351.5 151.5,351.5C 149.365,349.631 146.698,348.964 143.5,349.5C 143.5,348.167 143.5,346.833 143.5,345.5C 141.5,345.5 139.5,345.5 137.5,345.5C 137.5,342.833 137.5,340.167 137.5,337.5C 134.167,337.5 130.833,337.5 127.5,337.5C 125.5,337.5 123.5,337.5 121.5,337.5C 121.5,338.833 121.5,340.167 121.5,341.5C 119.861,347.111 118.861,353.111 118.5,359.5C 117.507,354.88 117.173,350.214 117.5,345.5C 114.167,345.5 110.833,345.5 107.5,345.5C 107.5,344.167 107.5,342.833 107.5,341.5C 92.3632,340.981 86.0299,348.314 88.5,363.5C 87.5091,359.555 87.1758,355.555 87.5,351.5C 86.1667,351.5 84.8333,351.5 83.5,351.5C 81.3647,349.631 78.6981,348.964 75.5,349.5C 75.5,348.167 75.5,346.833 75.5,345.5C 73.5,345.5 71.5,345.5 69.5,345.5C 69.5,342.833 69.5,340.167 69.5,337.5C 66.1667,337.5 62.8333,337.5 59.5,337.5C 57.5,337.5 55.5,337.5 53.5,337.5C 53.5,338.833 53.5,340.167 53.5,341.5C 51.861,347.111 50.861,353.111 50.5,359.5C 49.5067,354.88 49.1734,350.214 49.5,345.5C 46.1667,345.5 42.8333,345.5 39.5,345.5C 39.5,344.167 39.5,342.833 39.5,341.5C 24.3632,340.981 18.0299,348.314 20.5,363.5C 19.5091,359.555 19.1758,355.555 19.5,351.5C 17.5,351.5 15.5,351.5 13.5,351.5C 11.3647,349.631 8.69805,348.964 5.5,349.5C 5.5,348.167 5.5,346.833 5.5,345.5C 3.5,345.5 1.5,345.5 -0.5,345.5C -0.5,336.833 -0.5,328.167 -0.5,319.5C 3.11651,316.685 7.11651,314.352 11.5,312.5C 15.5,311.167 19.5,311.167 23.5,312.5C 31.9964,315.326 37.3297,320.992 39.5,329.5C 44.811,328.184 50.1444,326.851 55.5,325.5C 60.8556,326.851 66.189,328.184 71.5,329.5C 71.238,328.022 71.5713,326.689 72.5,325.5C 85.4239,312.257 98.4239,312.257 111.5,325.5C 115.172,322.662 119.172,320.329 123.5,318.5C 128.298,317.078 132.965,317.411 137.5,319.5C 150.363,309.126 163.363,309.126 176.5,319.5C 183.441,310.522 192.441,306.856 203.5,308.5C 205.332,309.057 206.665,310.057 207.5,311.5 Z"/></g>
<g><path style="opacity:1" fill="#e0f8d8" d="M 207.5,311.5 C 208.978,311.238 210.311,311.571 211.5,312.5C 212.81,315.473 214.81,317.807 217.5,319.5C 221.123,317.021 225.123,315.688 229.5,315.5C 237.24,316.703 243.907,320.037 249.5,325.5C 253.172,322.662 257.172,320.329 261.5,318.5C 268.206,317.006 274.539,318.006 280.5,321.5C 283.105,320.543 285.439,319.21 287.5,317.5C 287.5,319.5 287.5,321.5 287.5,323.5C 283.742,325.183 279.742,325.849 275.5,325.5C 275.5,324.167 275.5,322.833 275.5,321.5C 271.445,321.176 267.445,321.509 263.5,322.5C 258.761,324.87 254.094,327.203 249.5,329.5C 245.468,329.468 243.468,327.468 243.5,323.5C 239.883,323.517 236.55,322.517 233.5,320.5C 229.555,319.509 225.555,319.176 221.5,319.5C 221.5,320.833 221.5,322.167 221.5,323.5C 213.179,323.85 208.513,319.85 207.5,311.5 Z"/></g>
<g><path style="opacity:1" fill="#bfe8c7" d="M 59.5,337.5 C 59.5,338.833 59.5,340.167 59.5,341.5C 57.5,341.5 55.5,341.5 53.5,341.5C 53.5,340.167 53.5,338.833 53.5,337.5C 55.5,337.5 57.5,337.5 59.5,337.5 Z"/></g>
<g><path style="opacity:1" fill="#bfe8c7" d="M 127.5,337.5 C 127.5,338.833 127.5,340.167 127.5,341.5C 125.5,341.5 123.5,341.5 121.5,341.5C 121.5,340.167 121.5,338.833 121.5,337.5C 123.5,337.5 125.5,337.5 127.5,337.5 Z"/></g>
<g><path style="opacity:1" fill="#bfe8c7" d="M 197.5,337.5 C 197.5,338.833 197.5,340.167 197.5,341.5C 195.5,341.5 193.5,341.5 191.5,341.5C 191.5,340.167 191.5,338.833 191.5,337.5C 193.5,337.5 195.5,337.5 197.5,337.5 Z"/></g>
<g><path style="opacity:1" fill="#bfe8c7" d="M 265.5,337.5 C 265.5,338.833 265.5,340.167 265.5,341.5C 263.5,341.5 261.5,341.5 259.5,341.5C 259.5,340.167 259.5,338.833 259.5,337.5C 261.5,337.5 263.5,337.5 265.5,337.5 Z"/></g>
<g><path style="opacity:1" fill="#dceece" d="M 39.5,345.5 C 38.1667,345.5 36.8333,345.5 35.5,345.5C 35.5,347.5 35.5,349.5 35.5,351.5C 33.5,351.5 31.5,351.5 29.5,351.5C 29.5,357.5 29.5,363.5 29.5,369.5C 28.1667,369.5 26.8333,369.5 25.5,369.5C 24.6661,368.252 23.3328,367.585 21.5,367.5C 19.6672,367.585 18.3339,368.252 17.5,369.5C 16.1667,369.5 14.8333,369.5 13.5,369.5C 13.5,363.5 13.5,357.5 13.5,351.5C 15.5,351.5 17.5,351.5 19.5,351.5C 19.1758,355.555 19.5091,359.555 20.5,363.5C 18.0299,348.314 24.3632,340.981 39.5,341.5C 39.5,342.833 39.5,344.167 39.5,345.5 Z"/></g>
<g><path style="opacity:1" fill="#ddeece" d="M 107.5,345.5 C 106.167,345.5 104.833,345.5 103.5,345.5C 103.5,347.5 103.5,349.5 103.5,351.5C 101.5,351.5 99.5,351.5 97.5,351.5C 97.5,356.833 97.5,362.167 97.5,367.5C 97.5,368.167 97.5,368.833 97.5,369.5C 93.694,370.092 90.3607,371.425 87.5,373.5C 86.1667,373.5 84.8333,373.5 83.5,373.5C 83.5,372.833 83.5,372.167 83.5,371.5C 83.5,364.833 83.5,358.167 83.5,351.5C 84.8333,351.5 86.1667,351.5 87.5,351.5C 87.1758,355.555 87.5091,359.555 88.5,363.5C 86.0299,348.314 92.3632,340.981 107.5,341.5C 107.5,342.833 107.5,344.167 107.5,345.5 Z"/></g>
<g><path style="opacity:1" fill="#dceece" d="M 177.5,345.5 C 176.167,345.5 174.833,345.5 173.5,345.5C 173.5,347.5 173.5,349.5 173.5,351.5C 171.5,351.5 169.5,351.5 167.5,351.5C 167.5,357.5 167.5,363.5 167.5,369.5C 166.167,369.5 164.833,369.5 163.5,369.5C 162.666,368.252 161.333,367.585 159.5,367.5C 157.667,367.585 156.334,368.252 155.5,369.5C 154.167,369.5 152.833,369.5 151.5,369.5C 151.5,363.5 151.5,357.5 151.5,351.5C 153.5,351.5 155.5,351.5 157.5,351.5C 157.176,355.555 157.509,359.555 158.5,363.5C 156.03,348.314 162.363,340.981 177.5,341.5C 177.5,342.833 177.5,344.167 177.5,345.5 Z"/></g>
<g><path style="opacity:1" fill="#ddeece" d="M 245.5,345.5 C 244.167,345.5 242.833,345.5 241.5,345.5C 241.5,347.5 241.5,349.5 241.5,351.5C 239.5,351.5 237.5,351.5 235.5,351.5C 235.5,356.833 235.5,362.167 235.5,367.5C 235.5,368.167 235.5,368.833 235.5,369.5C 231.694,370.092 228.361,371.425 225.5,373.5C 224.167,373.5 222.833,373.5 221.5,373.5C 221.5,372.833 221.5,372.167 221.5,371.5C 221.5,364.833 221.5,358.167 221.5,351.5C 222.833,351.5 224.167,351.5 225.5,351.5C 225.176,355.555 225.509,359.555 226.5,363.5C 224.03,348.314 230.363,340.981 245.5,341.5C 245.5,342.833 245.5,344.167 245.5,345.5 Z"/></g>
<g><path style="opacity:1" fill="#cdedc4" d="M 135.5,371.5 C 134.833,371.5 134.167,371.5 133.5,371.5C 132.167,371.5 131.5,372.167 131.5,373.5C 129.718,372.28 127.718,371.614 125.5,371.5C 124.817,369.824 123.483,369.157 121.5,369.5C 121.5,368.833 121.5,368.167 121.5,367.5C 121.5,359.5 121.5,351.5 121.5,343.5C 124.167,343.5 126.833,343.5 129.5,343.5C 129.5,342.167 129.5,340.833 129.5,339.5C 131.5,339.5 133.5,339.5 135.5,339.5C 135.5,350.167 135.5,360.833 135.5,371.5 Z"/></g>
<g><path style="opacity:1" fill="#cdecc4" d="M 273.5,371.5 C 272.167,371.5 271.5,372.167 271.5,373.5C 268.833,372.833 266.167,372.167 263.5,371.5C 262.817,369.824 261.483,369.157 259.5,369.5C 259.5,368.833 259.5,368.167 259.5,367.5C 259.5,359.5 259.5,351.5 259.5,343.5C 262.167,343.5 264.833,343.5 267.5,343.5C 267.5,342.167 267.5,340.833 267.5,339.5C 269.5,339.5 271.5,339.5 273.5,339.5C 273.5,350.167 273.5,360.833 273.5,371.5 Z"/></g>
<g><path style="opacity:1" fill="#c3e9c9" d="M -0.5,347.5 C 4.83333,348.167 4.83333,348.833 -0.5,349.5C -0.5,348.833 -0.5,348.167 -0.5,347.5 Z"/></g>
<g><path style="opacity:1" fill="#9fdbd6" d="M -0.5,345.5 C 1.5,345.5 3.5,345.5 5.5,345.5C 5.5,346.833 5.5,348.167 5.5,349.5C 8.69805,348.964 11.3647,349.631 13.5,351.5C 13.5,357.5 13.5,363.5 13.5,369.5C 13.5,370.167 13.5,370.833 13.5,371.5C 12.8333,371.5 12.1667,371.5 11.5,371.5C 11.5,364.833 11.5,358.167 11.5,351.5C 7.5,351.5 3.5,351.5 -0.5,351.5C -0.5,350.833 -0.5,350.167 -0.5,349.5C 4.83333,348.833 4.83333,348.167 -0.5,347.5C -0.5,346.833 -0.5,346.167 -0.5,345.5 Z"/></g>
<g><path style="opacity:1" fill="#9ddbd5" d="M 127.5,337.5 C 130.833,337.5 134.167,337.5 137.5,337.5C 137.5,340.167 137.5,342.833 137.5,345.5C 139.5,345.5 141.5,345.5 143.5,345.5C 143.5,346.833 143.5,348.167 143.5,349.5C 146.698,348.964 149.365,349.631 151.5,351.5C 151.5,357.5 151.5,363.5 151.5,369.5C 151.5,370.167 151.5,370.833 151.5,371.5C 150.833,371.5 150.167,371.5 149.5,371.5C 149.5,364.833 149.5,358.167 149.5,351.5C 146.167,351.5 142.833,351.5 139.5,351.5C 137.541,357.75 136.874,364.416 137.5,371.5C 136.833,371.5 136.167,371.5 135.5,371.5C 135.5,360.833 135.5,350.167 135.5,339.5C 133.5,339.5 131.5,339.5 129.5,339.5C 129.5,340.833 129.5,342.167 129.5,343.5C 126.833,343.5 124.167,343.5 121.5,343.5C 121.5,351.5 121.5,359.5 121.5,367.5C 120.833,367.5 120.167,367.5 119.5,367.5C 119.5,365.5 119.5,363.5 119.5,361.5C 116.833,361.5 114.167,361.5 111.5,361.5C 111.5,364.167 111.5,366.833 111.5,369.5C 110.833,369.5 110.167,369.5 109.5,369.5C 109.5,366.167 109.5,362.833 109.5,359.5C 111.5,359.5 113.5,359.5 115.5,359.5C 115.5,357.5 115.5,355.5 115.5,353.5C 110.167,353.5 104.833,353.5 99.5,353.5C 99.5,358.167 99.5,362.833 99.5,367.5C 98.8333,367.5 98.1667,367.5 97.5,367.5C 97.5,362.167 97.5,356.833 97.5,351.5C 99.5,351.5 101.5,351.5 103.5,351.5C 103.5,349.5 103.5,347.5 103.5,345.5C 104.833,345.5 106.167,345.5 107.5,345.5C 110.833,345.5 114.167,345.5 117.5,345.5C 117.173,350.214 117.507,354.88 118.5,359.5C 118.861,353.111 119.861,347.111 121.5,341.5C 123.5,341.5 125.5,341.5 127.5,341.5C 127.5,340.167 127.5,338.833 127.5,337.5 Z"/></g>
<g><path style="opacity:1" fill="#c1e9c9" d="M 137.5,347.5 C 138.978,347.238 140.311,347.571 141.5,348.5C 140.833,348.833 140.167,349.167 139.5,349.5C 138.287,349.253 137.62,348.586 137.5,347.5 Z"/></g>
<g><path style="opacity:1" fill="#c7eac8" d="M 105.5,347.5 C 108.833,347.5 112.167,347.5 115.5,347.5C 115.5,348.833 115.5,350.167 115.5,351.5C 112.167,351.5 108.833,351.5 105.5,351.5C 105.5,350.167 105.5,348.833 105.5,347.5 Z"/></g>
<g><path style="opacity:1" fill="#caebc4" d="M -0.5,351.5 C 3.5,351.5 7.5,351.5 11.5,351.5C 11.5,358.167 11.5,364.833 11.5,371.5C 10.8333,371.5 10.1667,371.5 9.5,371.5C 9.5,372.167 9.5,372.833 9.5,373.5C 8.16667,374.167 6.83333,374.833 5.5,375.5C 4.81658,373.824 3.48324,373.157 1.5,373.5C 1.97461,370.918 1.30794,368.918 -0.5,367.5C -0.5,362.167 -0.5,356.833 -0.5,351.5 Z"/></g>
<g><path style="opacity:1" fill="#9cdad5" d="M 59.5,337.5 C 62.8333,337.5 66.1667,337.5 69.5,337.5C 69.5,340.167 69.5,342.833 69.5,345.5C 71.5,345.5 73.5,345.5 75.5,345.5C 75.5,346.833 75.5,348.167 75.5,349.5C 78.6981,348.964 81.3647,349.631 83.5,351.5C 83.5,358.167 83.5,364.833 83.5,371.5C 82.8333,371.5 82.1667,371.5 81.5,371.5C 81.5,364.833 81.5,358.167 81.5,351.5C 77.5,351.5 73.5,351.5 69.5,351.5C 69.5,356.833 69.5,362.167 69.5,367.5C 68.8333,367.5 68.1667,367.5 67.5,367.5C 67.5,358.167 67.5,348.833 67.5,339.5C 65.5,339.5 63.5,339.5 61.5,339.5C 61.5,340.833 61.5,342.167 61.5,343.5C 58.8333,343.5 56.1667,343.5 53.5,343.5C 53.5,351.5 53.5,359.5 53.5,367.5C 52.8333,367.5 52.1667,367.5 51.5,367.5C 51.5,365.5 51.5,363.5 51.5,361.5C 48.8333,361.5 46.1667,361.5 43.5,361.5C 43.5,364.167 43.5,366.833 43.5,369.5C 42.8166,371.176 41.4832,371.843 39.5,371.5C 40.799,367.63 41.4657,363.63 41.5,359.5C 43.5,359.5 45.5,359.5 47.5,359.5C 47.5,357.5 47.5,355.5 47.5,353.5C 42.1667,353.5 36.8333,353.5 31.5,353.5C 31.2354,359.64 31.9021,365.64 33.5,371.5C 32.1667,371.5 30.8333,371.5 29.5,371.5C 29.5,370.833 29.5,370.167 29.5,369.5C 29.5,363.5 29.5,357.5 29.5,351.5C 31.5,351.5 33.5,351.5 35.5,351.5C 35.5,349.5 35.5,347.5 35.5,345.5C 36.8333,345.5 38.1667,345.5 39.5,345.5C 42.8333,345.5 46.1667,345.5 49.5,345.5C 49.1734,350.214 49.5067,354.88 50.5,359.5C 50.861,353.111 51.861,347.111 53.5,341.5C 55.5,341.5 57.5,341.5 59.5,341.5C 59.5,340.167 59.5,338.833 59.5,337.5 Z"/></g>
<g><path style="opacity:1" fill="#c1e9c9" d="M 69.5,347.5 C 70.9778,347.238 72.3112,347.571 73.5,348.5C 72.8333,348.833 72.1667,349.167 71.5,349.5C 70.2867,349.253 69.62,348.586 69.5,347.5 Z"/></g>
<g><path style="opacity:1" fill="#c7eac8" d="M 37.5,347.5 C 40.8333,347.5 44.1667,347.5 47.5,347.5C 47.5,348.833 47.5,350.167 47.5,351.5C 44.1667,351.5 40.8333,351.5 37.5,351.5C 37.5,350.167 37.5,348.833 37.5,347.5 Z"/></g>
<g><path style="opacity:1" fill="#ccecc5" d="M 67.5,367.5 C 67.5,368.167 67.5,368.833 67.5,369.5C 65.5168,369.157 64.1834,369.824 63.5,371.5C 62.1667,371.5 60.8333,371.5 59.5,371.5C 58.8166,369.824 57.4832,369.157 55.5,369.5C 55.5,368.167 54.8333,367.5 53.5,367.5C 53.5,359.5 53.5,351.5 53.5,343.5C 56.1667,343.5 58.8333,343.5 61.5,343.5C 61.5,342.167 61.5,340.833 61.5,339.5C 63.5,339.5 65.5,339.5 67.5,339.5C 67.5,348.833 67.5,358.167 67.5,367.5 Z"/></g>
<g><path style="opacity:1" fill="#b2e4c2" d="M 139.5,351.5 C 139.5,358.833 139.5,366.167 139.5,373.5C 138.833,373.5 138.167,373.5 137.5,373.5C 137.5,372.833 137.5,372.167 137.5,371.5C 136.874,364.416 137.541,357.75 139.5,351.5 Z"/></g>
<g><path style="opacity:1" fill="#cbecc3" d="M 139.5,351.5 C 142.833,351.5 146.167,351.5 149.5,351.5C 149.5,358.167 149.5,364.833 149.5,371.5C 148.167,371.5 147.5,372.167 147.5,373.5C 146.265,373.721 145.265,374.388 144.5,375.5C 143.158,373.995 141.492,373.328 139.5,373.5C 139.5,366.167 139.5,358.833 139.5,351.5 Z"/></g>
<g><path style="opacity:1" fill="#9cdad5" d="M 197.5,337.5 C 200.833,337.5 204.167,337.5 207.5,337.5C 207.5,340.167 207.5,342.833 207.5,345.5C 209.5,345.5 211.5,345.5 213.5,345.5C 213.5,346.833 213.5,348.167 213.5,349.5C 216.698,348.964 219.365,349.631 221.5,351.5C 221.5,358.167 221.5,364.833 221.5,371.5C 220.833,371.5 220.167,371.5 219.5,371.5C 219.5,364.833 219.5,358.167 219.5,351.5C 215.5,351.5 211.5,351.5 207.5,351.5C 207.5,356.833 207.5,362.167 207.5,367.5C 206.833,367.5 206.167,367.5 205.5,367.5C 205.5,358.167 205.5,348.833 205.5,339.5C 203.5,339.5 201.5,339.5 199.5,339.5C 199.5,340.833 199.5,342.167 199.5,343.5C 196.833,343.5 194.167,343.5 191.5,343.5C 191.5,351.5 191.5,359.5 191.5,367.5C 190.833,367.5 190.167,367.5 189.5,367.5C 189.5,365.5 189.5,363.5 189.5,361.5C 186.833,361.5 184.167,361.5 181.5,361.5C 181.5,364.167 181.5,366.833 181.5,369.5C 181.5,370.833 180.833,371.5 179.5,371.5C 179.5,367.5 179.5,363.5 179.5,359.5C 181.5,359.5 183.5,359.5 185.5,359.5C 185.5,357.5 185.5,355.5 185.5,353.5C 180.167,353.5 174.833,353.5 169.5,353.5C 169.5,359.5 169.5,365.5 169.5,371.5C 168.833,371.5 168.167,371.5 167.5,371.5C 167.5,370.833 167.5,370.167 167.5,369.5C 167.5,363.5 167.5,357.5 167.5,351.5C 169.5,351.5 171.5,351.5 173.5,351.5C 173.5,349.5 173.5,347.5 173.5,345.5C 174.833,345.5 176.167,345.5 177.5,345.5C 180.833,345.5 184.167,345.5 187.5,345.5C 187.173,350.214 187.507,354.88 188.5,359.5C 188.861,353.111 189.861,347.111 191.5,341.5C 193.5,341.5 195.5,341.5 197.5,341.5C 197.5,340.167 197.5,338.833 197.5,337.5 Z"/></g>
<g><path style="opacity:1" fill="#c1e9c9" d="M 207.5,347.5 C 208.978,347.238 210.311,347.571 211.5,348.5C 210.833,348.833 210.167,349.167 209.5,349.5C 208.287,349.253 207.62,348.586 207.5,347.5 Z"/></g>
<g><path style="opacity:1" fill="#c7eac8" d="M 175.5,347.5 C 178.833,347.5 182.167,347.5 185.5,347.5C 185.5,348.833 185.5,350.167 185.5,351.5C 182.167,351.5 178.833,351.5 175.5,351.5C 175.5,350.167 175.5,348.833 175.5,347.5 Z"/></g>
<g><path style="opacity:1" fill="#ccecc4" d="M 205.5,367.5 C 205.5,368.167 205.5,368.833 205.5,369.5C 202.833,370.167 200.167,370.833 197.5,371.5C 196.817,369.824 195.483,369.157 193.5,369.5C 193.5,368.167 192.833,367.5 191.5,367.5C 191.5,359.5 191.5,351.5 191.5,343.5C 194.167,343.5 196.833,343.5 199.5,343.5C 199.5,342.167 199.5,340.833 199.5,339.5C 201.5,339.5 203.5,339.5 205.5,339.5C 205.5,348.833 205.5,358.167 205.5,367.5 Z"/></g>
<g><path style="opacity:1" fill="#9cdad5" d="M 265.5,337.5 C 268.833,337.5 272.167,337.5 275.5,337.5C 275.5,340.167 275.5,342.833 275.5,345.5C 277.5,345.5 279.5,345.5 281.5,345.5C 281.5,346.833 281.5,348.167 281.5,349.5C 283.5,349.5 285.5,349.5 287.5,349.5C 287.5,350.167 287.5,350.833 287.5,351.5C 284.167,351.5 280.833,351.5 277.5,351.5C 275.541,357.75 274.874,364.416 275.5,371.5C 274.833,371.5 274.167,371.5 273.5,371.5C 273.5,360.833 273.5,350.167 273.5,339.5C 271.5,339.5 269.5,339.5 267.5,339.5C 267.5,340.833 267.5,342.167 267.5,343.5C 264.833,343.5 262.167,343.5 259.5,343.5C 259.5,351.5 259.5,359.5 259.5,367.5C 258.833,367.5 258.167,367.5 257.5,367.5C 257.5,365.5 257.5,363.5 257.5,361.5C 254.833,361.5 252.167,361.5 249.5,361.5C 249.5,364.167 249.5,366.833 249.5,369.5C 248.167,369.5 246.833,369.5 245.5,369.5C 247.101,366.416 247.768,363.083 247.5,359.5C 249.5,359.5 251.5,359.5 253.5,359.5C 253.5,357.5 253.5,355.5 253.5,353.5C 248.167,353.5 242.833,353.5 237.5,353.5C 237.5,358.167 237.5,362.833 237.5,367.5C 236.833,367.5 236.167,367.5 235.5,367.5C 235.5,362.167 235.5,356.833 235.5,351.5C 237.5,351.5 239.5,351.5 241.5,351.5C 241.5,349.5 241.5,347.5 241.5,345.5C 242.833,345.5 244.167,345.5 245.5,345.5C 248.833,345.5 252.167,345.5 255.5,345.5C 255.173,350.214 255.507,354.88 256.5,359.5C 256.861,353.111 257.861,347.111 259.5,341.5C 261.5,341.5 263.5,341.5 265.5,341.5C 265.5,340.167 265.5,338.833 265.5,337.5 Z"/></g>
<g><path style="opacity:1" fill="#c1e9c9" d="M 275.5,347.5 C 276.978,347.238 278.311,347.571 279.5,348.5C 278.833,348.833 278.167,349.167 277.5,349.5C 276.287,349.253 275.62,348.586 275.5,347.5 Z"/></g>
<g><path style="opacity:1" fill="#c7eac8" d="M 243.5,347.5 C 246.833,347.5 250.167,347.5 253.5,347.5C 253.5,348.833 253.5,350.167 253.5,351.5C 250.167,351.5 246.833,351.5 243.5,351.5C 243.5,350.167 243.5,348.833 243.5,347.5 Z"/></g>
<g><path style="opacity:1" fill="#b2e4c2" d="M 277.5,351.5 C 277.5,357.5 277.5,363.5 277.5,369.5C 277.5,370.833 276.833,371.5 275.5,371.5C 274.874,364.416 275.541,357.75 277.5,351.5 Z"/></g>
<g><path style="opacity:1" fill="#cdedc4" d="M 277.5,351.5 C 280.833,351.5 284.167,351.5 287.5,351.5C 287.5,356.833 287.5,362.167 287.5,367.5C 284.918,367.025 282.918,367.692 281.5,369.5C 280.167,369.5 278.833,369.5 277.5,369.5C 277.5,363.5 277.5,357.5 277.5,351.5 Z"/></g>
<g><path style="opacity:1" fill="#c6eac4" d="M 39.5,371.5 C 38.8333,371.5 38.1667,371.5 37.5,371.5C 37.5,372.167 37.5,372.833 37.5,373.5C 35.5168,373.843 34.1834,373.176 33.5,371.5C 31.9021,365.64 31.2354,359.64 31.5,353.5C 36.8333,353.5 42.1667,353.5 47.5,353.5C 47.5,355.5 47.5,357.5 47.5,359.5C 45.5,359.5 43.5,359.5 41.5,359.5C 41.4657,363.63 40.799,367.63 39.5,371.5 Z"/></g>
<g><path style="opacity:1" fill="#c6eac4" d="M 109.5,369.5 C 108.167,369.5 106.833,369.5 105.5,369.5C 104.082,367.692 102.082,367.025 99.5,367.5C 99.5,362.833 99.5,358.167 99.5,353.5C 104.833,353.5 110.167,353.5 115.5,353.5C 115.5,355.5 115.5,357.5 115.5,359.5C 113.5,359.5 111.5,359.5 109.5,359.5C 109.5,362.833 109.5,366.167 109.5,369.5 Z"/></g>
<g><path style="opacity:1" fill="#c5eac3" d="M 179.5,371.5 C 176.833,372.167 174.167,372.833 171.5,373.5C 171.5,372.167 170.833,371.5 169.5,371.5C 169.5,365.5 169.5,359.5 169.5,353.5C 174.833,353.5 180.167,353.5 185.5,353.5C 185.5,355.5 185.5,357.5 185.5,359.5C 183.5,359.5 181.5,359.5 179.5,359.5C 179.5,363.5 179.5,367.5 179.5,371.5 Z"/></g>
<g><path style="opacity:1" fill="#c6eac4" d="M 245.5,369.5 C 244.833,369.5 244.167,369.5 243.5,369.5C 242.082,367.692 240.082,367.025 237.5,367.5C 237.5,362.833 237.5,358.167 237.5,353.5C 242.833,353.5 248.167,353.5 253.5,353.5C 253.5,355.5 253.5,357.5 253.5,359.5C 251.5,359.5 249.5,359.5 247.5,359.5C 247.768,363.083 247.101,366.416 245.5,369.5 Z"/></g>
<g><path style="opacity:1" fill="#ccecc4" d="M 81.5,371.5 C 80.8333,371.5 80.1667,371.5 79.5,371.5C 78.8166,369.824 77.4832,369.157 75.5,369.5C 74.0821,367.692 72.0821,367.025 69.5,367.5C 69.5,362.167 69.5,356.833 69.5,351.5C 73.5,351.5 77.5,351.5 81.5,351.5C 81.5,358.167 81.5,364.833 81.5,371.5 Z"/></g>
<g><path style="opacity:1" fill="#ccecc4" d="M 219.5,371.5 C 218.833,371.5 218.167,371.5 217.5,371.5C 216.817,369.824 215.483,369.157 213.5,369.5C 212.082,367.692 210.082,367.025 207.5,367.5C 207.5,362.167 207.5,356.833 207.5,351.5C 211.5,351.5 215.5,351.5 219.5,351.5C 219.5,358.167 219.5,364.833 219.5,371.5 Z"/></g>
<g><path style="opacity:1" fill="#c3e9c2" d="M 51.5,367.5 C 49.5168,367.157 48.1834,367.824 47.5,369.5C 46.1667,369.5 44.8333,369.5 43.5,369.5C 43.5,366.833 43.5,364.167 43.5,361.5C 46.1667,361.5 48.8333,361.5 51.5,361.5C 51.5,363.5 51.5,365.5 51.5,367.5 Z"/></g>
<g><path style="opacity:1" fill="#c2e9c2" d="M 119.5,367.5 C 116.918,367.025 114.918,367.692 113.5,369.5C 112.833,369.5 112.167,369.5 111.5,369.5C 111.5,366.833 111.5,364.167 111.5,361.5C 114.167,361.5 116.833,361.5 119.5,361.5C 119.5,363.5 119.5,365.5 119.5,367.5 Z"/></g>
<g><path style="opacity:1" fill="#c3e9c2" d="M 189.5,367.5 C 187.517,367.157 186.183,367.824 185.5,369.5C 184.167,369.5 182.833,369.5 181.5,369.5C 181.5,366.833 181.5,364.167 181.5,361.5C 184.167,361.5 186.833,361.5 189.5,361.5C 189.5,363.5 189.5,365.5 189.5,367.5 Z"/></g>
<g><path style="opacity:1" fill="#c2e9c2" d="M 257.5,367.5 C 254.918,367.025 252.918,367.692 251.5,369.5C 250.833,369.5 250.167,369.5 249.5,369.5C 249.5,366.833 249.5,364.167 249.5,361.5C 252.167,361.5 254.833,361.5 257.5,361.5C 257.5,363.5 257.5,365.5 257.5,367.5 Z"/></g>
<g><path style="opacity:1" fill="#9fdbd3" d="M 3.5,367.5 C 4.58617,367.62 5.25284,368.287 5.5,369.5C 5.16667,370.167 4.83333,370.833 4.5,371.5C 3.57131,370.311 3.23798,368.978 3.5,367.5 Z"/></g>
<g><path style="opacity:1" fill="#6dcd7f" d="M 25.5,369.5 C 22.8333,369.5 20.1667,369.5 17.5,369.5C 18.3339,368.252 19.6672,367.585 21.5,367.5C 23.3328,367.585 24.6661,368.252 25.5,369.5 Z"/></g>
<g><path style="opacity:1" fill="#62cc7e" d="M 51.5,367.5 C 52.1667,367.5 52.8333,367.5 53.5,367.5C 54.8333,367.5 55.5,368.167 55.5,369.5C 52.8333,369.5 50.1667,369.5 47.5,369.5C 48.1834,367.824 49.5168,367.157 51.5,367.5 Z"/></g>
<g><path style="opacity:1" fill="#64cc7e" d="M 67.5,367.5 C 68.1667,367.5 68.8333,367.5 69.5,367.5C 72.0821,367.025 74.0821,367.692 75.5,369.5C 72.8333,369.5 70.1667,369.5 67.5,369.5C 67.5,368.833 67.5,368.167 67.5,367.5 Z"/></g>
<g><path style="opacity:1" fill="#67cc7e" d="M 97.5,367.5 C 98.1667,367.5 98.8333,367.5 99.5,367.5C 102.082,367.025 104.082,367.692 105.5,369.5C 102.833,369.5 100.167,369.5 97.5,369.5C 97.5,368.833 97.5,368.167 97.5,367.5 Z"/></g>
<g><path style="opacity:1" fill="#63cc7e" d="M 119.5,367.5 C 120.167,367.5 120.833,367.5 121.5,367.5C 121.5,368.167 121.5,368.833 121.5,369.5C 118.833,369.5 116.167,369.5 113.5,369.5C 114.918,367.692 116.918,367.025 119.5,367.5 Z"/></g>
<g><path style="opacity:1" fill="#6dcd7f" d="M 163.5,369.5 C 160.833,369.5 158.167,369.5 155.5,369.5C 156.334,368.252 157.667,367.585 159.5,367.5C 161.333,367.585 162.666,368.252 163.5,369.5 Z"/></g>
<g><path style="opacity:1" fill="#63cc7d" d="M 189.5,367.5 C 190.167,367.5 190.833,367.5 191.5,367.5C 192.833,367.5 193.5,368.167 193.5,369.5C 190.833,369.5 188.167,369.5 185.5,369.5C 186.183,367.824 187.517,367.157 189.5,367.5 Z"/></g>
<g><path style="opacity:1" fill="#64cc7e" d="M 205.5,367.5 C 206.167,367.5 206.833,367.5 207.5,367.5C 210.082,367.025 212.082,367.692 213.5,369.5C 210.833,369.5 208.167,369.5 205.5,369.5C 205.5,368.833 205.5,368.167 205.5,367.5 Z"/></g>
<g><path style="opacity:1" fill="#67cc7e" d="M 235.5,367.5 C 236.167,367.5 236.833,367.5 237.5,367.5C 240.082,367.025 242.082,367.692 243.5,369.5C 240.833,369.5 238.167,369.5 235.5,369.5C 235.5,368.833 235.5,368.167 235.5,367.5 Z"/></g>
<g><path style="opacity:1" fill="#63cc7e" d="M 257.5,367.5 C 258.167,367.5 258.833,367.5 259.5,367.5C 259.5,368.167 259.5,368.833 259.5,369.5C 256.833,369.5 254.167,369.5 251.5,369.5C 252.918,367.692 254.918,367.025 257.5,367.5 Z"/></g>
<g><path style="opacity:1" fill="#67cd7c" d="M 287.5,367.5 C 287.5,368.167 287.5,368.833 287.5,369.5C 285.5,369.5 283.5,369.5 281.5,369.5C 282.918,367.692 284.918,367.025 287.5,367.5 Z"/></g>
<g><path style="opacity:1" fill="#94d8d1" d="M -0.5,367.5 C 1.30794,368.918 1.97461,370.918 1.5,373.5C 0.833333,373.5 0.166667,373.5 -0.5,373.5C -0.5,371.5 -0.5,369.5 -0.5,367.5 Z"/></g>
<g><path style="opacity:1" fill="#9bdad1" d="M 9.5,371.5 C 8.41383,371.38 7.74716,370.713 7.5,369.5C 7.83333,368.833 8.16667,368.167 8.5,367.5C 9.42869,368.689 9.76202,370.022 9.5,371.5 Z"/></g>
<g><path style="opacity:1" fill="#62cc7d" d="M 13.5,369.5 C 14.8333,369.5 16.1667,369.5 17.5,369.5C 16.8166,371.176 15.4832,371.843 13.5,371.5C 13.5,370.833 13.5,370.167 13.5,369.5 Z"/></g>
<g><path style="opacity:1" fill="#62cb7f" d="M 25.5,369.5 C 26.8333,369.5 28.1667,369.5 29.5,369.5C 29.5,370.167 29.5,370.833 29.5,371.5C 27.5168,371.843 26.1834,371.176 25.5,369.5 Z"/></g>
<g><path style="opacity:1" fill="#99d9d0" d="M 37.5,371.5 C 36.4138,371.38 35.7472,370.713 35.5,369.5C 35.8333,368.833 36.1667,368.167 36.5,367.5C 37.4287,368.689 37.762,370.022 37.5,371.5 Z"/></g>
<g><path style="opacity:1" fill="#63cc7f" d="M 163.5,369.5 C 164.833,369.5 166.167,369.5 167.5,369.5C 167.5,370.167 167.5,370.833 167.5,371.5C 165.517,371.843 164.183,371.176 163.5,369.5 Z"/></g>
<g><path style="opacity:1" fill="#5fcc7d" d="M 9.5,371.5 C 10.1667,371.5 10.8333,371.5 11.5,371.5C 12.1667,371.5 12.8333,371.5 13.5,371.5C 12.8166,373.176 11.4832,373.843 9.5,373.5C 9.5,372.833 9.5,372.167 9.5,371.5 Z"/></g>
<g><path style="opacity:1" fill="#59ca79" d="M 43.5,369.5 C 44.8333,369.5 46.1667,369.5 47.5,369.5C 47.2786,370.735 46.6119,371.735 45.5,372.5C 42.9135,373.48 40.2469,373.813 37.5,373.5C 37.5,372.833 37.5,372.167 37.5,371.5C 38.1667,371.5 38.8333,371.5 39.5,371.5C 41.4832,371.843 42.8166,371.176 43.5,369.5 Z"/></g>
<g><path style="opacity:1" fill="#5bdb70" d="M 47.5,369.5 C 50.1667,369.5 52.8333,369.5 55.5,369.5C 56.1834,371.176 57.5168,371.843 59.5,371.5C 60.8333,371.5 62.1667,371.5 63.5,371.5C 65.4832,371.843 66.8166,371.176 67.5,369.5C 70.1667,369.5 72.8333,369.5 75.5,369.5C 76.1834,371.176 77.5168,371.843 79.5,371.5C 80.1834,373.176 81.5168,373.843 83.5,373.5C 84.8333,373.5 86.1667,373.5 87.5,373.5C 90.2469,373.813 92.9135,373.48 95.5,372.5C 96.6119,371.735 97.2786,370.735 97.5,369.5C 100.167,369.5 102.833,369.5 105.5,369.5C 107.527,371.847 110.194,373.181 113.5,373.5C 113.5,375.5 113.5,377.5 113.5,379.5C 116.247,379.813 118.914,379.48 121.5,378.5C 122.612,377.735 123.279,376.735 123.5,375.5C 127.329,376.069 130.663,375.402 133.5,373.5C 134.833,373.5 136.167,373.5 137.5,373.5C 138.167,373.5 138.833,373.5 139.5,373.5C 141.492,373.328 143.158,373.995 144.5,375.5C 145.265,374.388 146.265,373.721 147.5,373.5C 149.483,373.843 150.817,373.176 151.5,371.5C 153.483,371.843 154.817,371.176 155.5,369.5C 158.167,369.5 160.833,369.5 163.5,369.5C 164.183,371.176 165.517,371.843 167.5,371.5C 168.183,373.176 169.517,373.843 171.5,373.5C 172.183,375.176 173.517,375.843 175.5,375.5C 175.5,376.167 175.5,376.833 175.5,377.5C 172.833,377.5 170.167,377.5 167.5,377.5C 167.5,378.833 167.5,380.167 167.5,381.5C 164.865,380.858 162.198,380.191 159.5,379.5C 154.787,380.69 150.453,382.69 146.5,385.5C 145.881,382.968 144.881,380.635 143.5,378.5C 138.88,377.507 134.214,377.173 129.5,377.5C 129.16,380.144 129.827,382.477 131.5,384.5C 129.604,385.466 127.604,385.799 125.5,385.5C 125.5,384.167 125.5,382.833 125.5,381.5C 120.125,381.172 114.792,381.505 109.5,382.5C 108.5,383.5 107.5,384.5 106.5,385.5C 104.917,383.01 103.917,380.343 103.5,377.5C 100.566,376.712 97.5656,376.046 94.5,375.5C 89.5757,376.819 84.5757,377.486 79.5,377.5C 79.0828,380.343 78.0828,383.01 76.5,385.5C 74.2098,383.227 71.8765,381.227 69.5,379.5C 69.7214,378.265 70.3881,377.265 71.5,376.5C 69.6017,375.266 67.935,375.599 66.5,377.5C 65.8333,376.167 65.1667,374.833 64.5,373.5C 63.4734,375.553 62.4734,377.553 61.5,379.5C 59.4726,381.847 56.806,383.181 53.5,383.5C 53.5,381.5 53.5,379.5 53.5,377.5C 48.3078,375.969 42.9745,375.303 37.5,375.5C 37.5,374.833 37.5,374.167 37.5,373.5C 40.2469,373.813 42.9135,373.48 45.5,372.5C 46.6119,371.735 47.2786,370.735 47.5,369.5 Z"/></g>
<g><path style="opacity:1" fill="#62cb79" d="M 97.5,369.5 C 97.2786,370.735 96.6119,371.735 95.5,372.5C 92.9135,373.48 90.2469,373.813 87.5,373.5C 90.3607,371.425 93.694,370.092 97.5,369.5 Z"/></g>
<g><path style="opacity:1" fill="#60ca7e" d="M 79.5,371.5 C 80.1667,371.5 80.8333,371.5 81.5,371.5C 82.1667,371.5 82.8333,371.5 83.5,371.5C 83.5,372.167 83.5,372.833 83.5,373.5C 81.5168,373.843 80.1834,373.176 79.5,371.5 Z"/></g>
<g><path style="opacity:1" fill="#62cc7d" d="M 151.5,369.5 C 152.833,369.5 154.167,369.5 155.5,369.5C 154.817,371.176 153.483,371.843 151.5,371.5C 151.5,370.833 151.5,370.167 151.5,369.5 Z"/></g>
<g><path style="opacity:1" fill="#64cc7b" d="M 121.5,369.5 C 123.483,369.157 124.817,369.824 125.5,371.5C 123.517,371.843 122.183,371.176 121.5,369.5 Z"/></g>
<g><path style="opacity:1" fill="#59ca76" d="M 105.5,369.5 C 106.833,369.5 108.167,369.5 109.5,369.5C 110.167,369.5 110.833,369.5 111.5,369.5C 112.167,369.5 112.833,369.5 113.5,369.5C 113.5,370.833 113.5,372.167 113.5,373.5C 110.194,373.181 107.527,371.847 105.5,369.5 Z"/></g>
<g><path style="opacity:1" fill="#64cc7d" d="M 75.5,369.5 C 77.4832,369.157 78.8166,369.824 79.5,371.5C 77.5168,371.843 76.1834,371.176 75.5,369.5 Z"/></g>
<g><path style="opacity:1" fill="#60cc7b" d="M 67.5,369.5 C 66.8166,371.176 65.4832,371.843 63.5,371.5C 64.1834,369.824 65.5168,369.157 67.5,369.5 Z"/></g>
<g><path style="opacity:1" fill="#63cc7d" d="M 55.5,369.5 C 57.4832,369.157 58.8166,369.824 59.5,371.5C 57.5168,371.843 56.1834,371.176 55.5,369.5 Z"/></g>
<g><path style="opacity:1" fill="#5dde71" d="M 113.5,369.5 C 116.167,369.5 118.833,369.5 121.5,369.5C 122.183,371.176 123.517,371.843 125.5,371.5C 124.833,372.833 124.167,374.167 123.5,375.5C 120.833,376.167 118.167,376.833 115.5,377.5C 115.843,375.517 115.176,374.183 113.5,373.5C 113.5,372.167 113.5,370.833 113.5,369.5 Z"/></g>
<g><path style="opacity:1" fill="#8dd8c5" d="M 133.5,371.5 C 133.5,372.167 133.5,372.833 133.5,373.5C 132.833,373.5 132.167,373.5 131.5,373.5C 131.5,372.167 132.167,371.5 133.5,371.5 Z"/></g>
<g><path style="opacity:1" fill="#66cc82" d="M 133.5,371.5 C 134.167,371.5 134.833,371.5 135.5,371.5C 136.167,371.5 136.833,371.5 137.5,371.5C 137.5,372.167 137.5,372.833 137.5,373.5C 136.167,373.5 134.833,373.5 133.5,373.5C 133.5,372.833 133.5,372.167 133.5,371.5 Z"/></g>
<g><path style="opacity:1" fill="#61cc7b" d="M 149.5,371.5 C 150.167,371.5 150.833,371.5 151.5,371.5C 150.817,373.176 149.483,373.843 147.5,373.5C 147.5,372.167 148.167,371.5 149.5,371.5 Z"/></g>
<g><path style="opacity:1" fill="#61cb7d" d="M 167.5,371.5 C 168.167,371.5 168.833,371.5 169.5,371.5C 170.833,371.5 171.5,372.167 171.5,373.5C 169.517,373.843 168.183,373.176 167.5,371.5 Z"/></g>
<g><path style="opacity:1" fill="#62cb7d" d="M -0.5,373.5 C 0.166667,373.5 0.833333,373.5 1.5,373.5C 3.48324,373.157 4.81658,373.824 5.5,375.5C 3.5,375.5 1.5,375.5 -0.5,375.5C -0.5,374.833 -0.5,374.167 -0.5,373.5 Z"/></g>
<g><path style="opacity:1" fill="#5ada6f" d="M 17.5,369.5 C 20.1667,369.5 22.8333,369.5 25.5,369.5C 26.1834,371.176 27.5168,371.843 29.5,371.5C 29.5,373.5 29.5,375.5 29.5,377.5C 29.5,378.833 29.5,380.167 29.5,381.5C 26.865,380.858 24.1984,380.191 21.5,379.5C 16.7868,380.69 12.4535,382.69 8.5,385.5C 7.28467,382.191 6.28467,378.858 5.5,375.5C 6.83333,374.833 8.16667,374.167 9.5,373.5C 11.4832,373.843 12.8166,373.176 13.5,371.5C 15.4832,371.843 16.8166,371.176 17.5,369.5 Z"/></g>
<g><path style="opacity:1" fill="#57c975" d="M 29.5,371.5 C 30.8333,371.5 32.1667,371.5 33.5,371.5C 34.1834,373.176 35.5168,373.843 37.5,373.5C 37.5,374.167 37.5,374.833 37.5,375.5C 34.8333,376.167 32.1667,376.833 29.5,377.5C 29.5,375.5 29.5,373.5 29.5,371.5 Z"/></g>
<g><path style="opacity:1" fill="#52c96b" d="M 69.5,379.5 C 66.8333,379.5 64.1667,379.5 61.5,379.5C 62.4734,377.553 63.4734,375.553 64.5,373.5C 65.1667,374.833 65.8333,376.167 66.5,377.5C 67.935,375.599 69.6017,375.266 71.5,376.5C 70.3881,377.265 69.7214,378.265 69.5,379.5 Z"/></g>
<g><path style="opacity:1" fill="#52ca6a" d="M 113.5,373.5 C 115.176,374.183 115.843,375.517 115.5,377.5C 118.167,376.833 120.833,376.167 123.5,375.5C 123.279,376.735 122.612,377.735 121.5,378.5C 118.914,379.48 116.247,379.813 113.5,379.5C 113.5,377.5 113.5,375.5 113.5,373.5 Z"/></g>
<g><path style="opacity:1" fill="#5bcb75" d="M 125.5,371.5 C 127.718,371.614 129.718,372.28 131.5,373.5C 132.167,373.5 132.833,373.5 133.5,373.5C 130.663,375.402 127.329,376.069 123.5,375.5C 124.167,374.167 124.833,372.833 125.5,371.5 Z"/></g>
<g><path style="opacity:1" fill="#5ed376" d="M 181.5,369.5 C 182.833,369.5 184.167,369.5 185.5,369.5C 185.279,370.735 184.612,371.735 183.5,372.5C 181.01,374.083 178.343,375.083 175.5,375.5C 173.517,375.843 172.183,375.176 171.5,373.5C 174.167,372.833 176.833,372.167 179.5,371.5C 180.833,371.5 181.5,370.833 181.5,369.5 Z"/></g>
<g><path style="opacity:1" fill="#5de16f" d="M -0.5,375.5 C 1.5,375.5 3.5,375.5 5.5,375.5C 6.28467,378.858 7.28467,382.191 8.5,385.5C 12.4535,382.69 16.7868,380.69 21.5,379.5C 24.1984,380.191 26.865,380.858 29.5,381.5C 29.5,380.167 29.5,378.833 29.5,377.5C 32.1667,376.833 34.8333,376.167 37.5,375.5C 42.9745,375.303 48.3078,375.969 53.5,377.5C 53.5,379.5 53.5,381.5 53.5,383.5C 56.806,383.181 59.4726,381.847 61.5,379.5C 64.1667,379.5 66.8333,379.5 69.5,379.5C 71.8765,381.227 74.2098,383.227 76.5,385.5C 78.0828,383.01 79.0828,380.343 79.5,377.5C 84.5757,377.486 89.5757,376.819 94.5,375.5C 97.5656,376.046 100.566,376.712 103.5,377.5C 103.917,380.343 104.917,383.01 106.5,385.5C 107.5,384.5 108.5,383.5 109.5,382.5C 114.792,381.505 120.125,381.172 125.5,381.5C 125.5,382.833 125.5,384.167 125.5,385.5C 127.604,385.799 129.604,385.466 131.5,384.5C 129.827,382.477 129.16,380.144 129.5,377.5C 134.214,377.173 138.88,377.507 143.5,378.5C 144.881,380.635 145.881,382.968 146.5,385.5C 150.453,382.69 154.787,380.69 159.5,379.5C 162.198,380.191 164.865,380.858 167.5,381.5C 167.5,380.167 167.5,378.833 167.5,377.5C 170.167,377.5 172.833,377.5 175.5,377.5C 178.932,377.757 182.266,378.424 185.5,379.5C 185.187,382.247 185.52,384.914 186.5,387.5C 187.623,388.544 188.956,389.21 190.5,389.5C 194.953,387.774 199.286,385.774 203.5,383.5C 207.358,385.26 211.025,387.26 214.5,389.5C 215.5,389.167 216.5,388.833 217.5,388.5C 219.897,383.104 223.897,379.438 229.5,377.5C 234.767,379.101 238.433,382.435 240.5,387.5C 241.623,388.544 242.956,389.21 244.5,389.5C 247.975,387.26 251.642,385.26 255.5,383.5C 259.714,385.774 264.047,387.774 268.5,389.5C 271.5,389.167 273.167,387.5 273.5,384.5C 273.21,382.956 272.544,381.623 271.5,380.5C 272.551,379.115 273.884,378.115 275.5,377.5C 277.334,378.754 279.334,379.421 281.5,379.5C 281.187,382.247 281.52,384.914 282.5,387.5C 283.842,389.005 285.508,389.672 287.5,389.5C 287.5,430.167 287.5,470.833 287.5,511.5C 191.5,511.5 95.5,511.5 -0.5,511.5C -0.5,466.167 -0.5,420.833 -0.5,375.5 Z"/></g>
<g><path style="opacity:1" fill="#5bdf6f" d="M 185.5,369.5 C 188.167,369.5 190.833,369.5 193.5,369.5C 194.183,371.176 195.517,371.843 197.5,371.5C 198.183,373.176 199.517,373.843 201.5,373.5C 201.672,375.492 201.005,377.158 199.5,378.5C 205.415,378.959 210.415,381.292 214.5,385.5C 216.083,383.01 217.083,380.343 217.5,377.5C 220.806,377.181 223.473,375.847 225.5,373.5C 228.247,373.813 230.914,373.48 233.5,372.5C 234.612,371.735 235.279,370.735 235.5,369.5C 238.167,369.5 240.833,369.5 243.5,369.5C 245.527,371.847 248.194,373.181 251.5,373.5C 251.5,375.5 251.5,377.5 251.5,379.5C 255.63,379.534 259.63,380.201 263.5,381.5C 263.5,380.167 263.5,378.833 263.5,377.5C 266.806,377.181 269.473,375.847 271.5,373.5C 274.247,373.813 276.914,373.48 279.5,372.5C 280.612,371.735 281.279,370.735 281.5,369.5C 283.5,369.5 285.5,369.5 287.5,369.5C 287.5,376.167 287.5,382.833 287.5,389.5C 285.508,389.672 283.842,389.005 282.5,387.5C 281.52,384.914 281.187,382.247 281.5,379.5C 279.334,379.421 277.334,378.754 275.5,377.5C 273.884,378.115 272.551,379.115 271.5,380.5C 272.544,381.623 273.21,382.956 273.5,384.5C 273.167,387.5 271.5,389.167 268.5,389.5C 264.047,387.774 259.714,385.774 255.5,383.5C 251.642,385.26 247.975,387.26 244.5,389.5C 242.956,389.21 241.623,388.544 240.5,387.5C 238.433,382.435 234.767,379.101 229.5,377.5C 223.897,379.438 219.897,383.104 217.5,388.5C 216.5,388.833 215.5,389.167 214.5,389.5C 211.025,387.26 207.358,385.26 203.5,383.5C 199.286,385.774 194.953,387.774 190.5,389.5C 188.956,389.21 187.623,388.544 186.5,387.5C 185.52,384.914 185.187,382.247 185.5,379.5C 182.266,378.424 178.932,377.757 175.5,377.5C 175.5,376.833 175.5,376.167 175.5,375.5C 178.343,375.083 181.01,374.083 183.5,372.5C 184.612,371.735 185.279,370.735 185.5,369.5 Z"/></g>
<g><path style="opacity:1" fill="#57d26e" d="M 205.5,369.5 C 208.167,369.5 210.833,369.5 213.5,369.5C 215.483,369.157 216.817,369.824 217.5,371.5C 213.445,371.176 209.445,371.509 205.5,372.5C 203.599,373.935 203.266,375.602 204.5,377.5C 208.294,374.467 212.627,373.134 217.5,373.5C 218.833,373.5 220.167,373.5 221.5,373.5C 222.833,373.5 224.167,373.5 225.5,373.5C 223.473,375.847 220.806,377.181 217.5,377.5C 217.083,380.343 216.083,383.01 214.5,385.5C 210.415,381.292 205.415,378.959 199.5,378.5C 201.005,377.158 201.672,375.492 201.5,373.5C 199.517,373.843 198.183,373.176 197.5,371.5C 200.167,370.833 202.833,370.167 205.5,369.5 Z"/></g>
<g><path style="opacity:1" fill="#54cb6d" d="M 263.5,371.5 C 266.167,372.167 268.833,372.833 271.5,373.5C 269.473,375.847 266.806,377.181 263.5,377.5C 263.5,378.833 263.5,380.167 263.5,381.5C 259.63,380.201 255.63,379.534 251.5,379.5C 251.5,377.5 251.5,375.5 251.5,373.5C 253.176,374.183 253.843,375.517 253.5,377.5C 256.343,377.083 259.01,376.083 261.5,374.5C 262.612,373.735 263.279,372.735 263.5,371.5 Z"/></g>
<g><path style="opacity:1" fill="#5ecb7a" d="M 277.5,369.5 C 278.833,369.5 280.167,369.5 281.5,369.5C 281.279,370.735 280.612,371.735 279.5,372.5C 276.914,373.48 274.247,373.813 271.5,373.5C 271.5,372.167 272.167,371.5 273.5,371.5C 274.167,371.5 274.833,371.5 275.5,371.5C 276.833,371.5 277.5,370.833 277.5,369.5 Z"/></g>
<g><path style="opacity:1" fill="#5dde71" d="M 251.5,369.5 C 254.167,369.5 256.833,369.5 259.5,369.5C 260.183,371.176 261.517,371.843 263.5,371.5C 263.279,372.735 262.612,373.735 261.5,374.5C 259.01,376.083 256.343,377.083 253.5,377.5C 253.843,375.517 253.176,374.183 251.5,373.5C 251.5,372.167 251.5,370.833 251.5,369.5 Z"/></g>
<g><path style="opacity:1" fill="#62cb79" d="M 235.5,369.5 C 235.279,370.735 234.612,371.735 233.5,372.5C 230.914,373.48 228.247,373.813 225.5,373.5C 228.361,371.425 231.694,370.092 235.5,369.5 Z"/></g>
<g><path style="opacity:1" fill="#60ca7e" d="M 217.5,371.5 C 218.167,371.5 218.833,371.5 219.5,371.5C 220.167,371.5 220.833,371.5 221.5,371.5C 221.5,372.167 221.5,372.833 221.5,373.5C 220.167,373.5 218.833,373.5 217.5,373.5C 217.5,372.833 217.5,372.167 217.5,371.5 Z"/></g>
<g><path style="opacity:1" fill="#5bde6f" d="M 217.5,371.5 C 217.5,372.167 217.5,372.833 217.5,373.5C 212.627,373.134 208.294,374.467 204.5,377.5C 203.266,375.602 203.599,373.935 205.5,372.5C 209.445,371.509 213.445,371.176 217.5,371.5 Z"/></g>
<g><path style="opacity:1" fill="#64cc7b" d="M 259.5,369.5 C 261.483,369.157 262.817,369.824 263.5,371.5C 261.517,371.843 260.183,371.176 259.5,369.5 Z"/></g>
<g><path style="opacity:1" fill="#58ca76" d="M 243.5,369.5 C 244.167,369.5 244.833,369.5 245.5,369.5C 246.833,369.5 248.167,369.5 249.5,369.5C 250.167,369.5 250.833,369.5 251.5,369.5C 251.5,370.833 251.5,372.167 251.5,373.5C 248.194,373.181 245.527,371.847 243.5,369.5 Z"/></g>
<g><path style="opacity:1" fill="#64cc7b" d="M 193.5,369.5 C 195.483,369.157 196.817,369.824 197.5,371.5C 195.517,371.843 194.183,371.176 193.5,369.5 Z"/></g>
</svg>
